<mxfile host="app.diagrams.net" agent="Mozilla/5.0 (Windows NT 10.0; Win64; x64) AppleWebKit/537.36 (KHTML, like Gecko) Chrome/133.0.0.0 Safari/537.36" version="26.0.11">
  <diagram name="Page-1" id="PlA0bTD1htJH5vswvW3-">
    <mxGraphModel dx="1208" dy="1852" grid="1" gridSize="10" guides="1" tooltips="1" connect="1" arrows="1" fold="1" page="1" pageScale="1" pageWidth="827" pageHeight="1169" math="0" shadow="0">
      <root>
        <mxCell id="0" />
        <mxCell id="1" parent="0" />
        <mxCell id="G4qgXDZa_Toy5dqRiD-m-104" style="edgeStyle=orthogonalEdgeStyle;rounded=0;orthogonalLoop=1;jettySize=auto;html=1;entryX=0.5;entryY=0;entryDx=0;entryDy=0;endArrow=none;startFill=0;" edge="1" parent="1" source="G4qgXDZa_Toy5dqRiD-m-72" target="G4qgXDZa_Toy5dqRiD-m-99">
          <mxGeometry relative="1" as="geometry" />
        </mxCell>
        <mxCell id="G4qgXDZa_Toy5dqRiD-m-105" value="1,n" style="edgeLabel;html=1;align=center;verticalAlign=middle;resizable=0;points=[];" vertex="1" connectable="0" parent="G4qgXDZa_Toy5dqRiD-m-104">
          <mxGeometry x="0.0696" y="1" relative="1" as="geometry">
            <mxPoint as="offset" />
          </mxGeometry>
        </mxCell>
        <mxCell id="G4qgXDZa_Toy5dqRiD-m-72" value="client" style="swimlane;whiteSpace=wrap;html=1;" vertex="1" parent="1">
          <mxGeometry x="80" y="-440" width="200" height="160" as="geometry" />
        </mxCell>
        <mxCell id="G4qgXDZa_Toy5dqRiD-m-73" value="client name" style="text;html=1;align=left;verticalAlign=middle;resizable=0;points=[];autosize=1;strokeColor=none;fillColor=none;" vertex="1" parent="G4qgXDZa_Toy5dqRiD-m-72">
          <mxGeometry x="10" y="60" width="80" height="30" as="geometry" />
        </mxCell>
        <mxCell id="G4qgXDZa_Toy5dqRiD-m-74" value="id" style="text;html=1;align=left;verticalAlign=middle;resizable=0;points=[];autosize=1;strokeColor=none;fillColor=none;" vertex="1" parent="G4qgXDZa_Toy5dqRiD-m-72">
          <mxGeometry x="10" y="30" width="30" height="30" as="geometry" />
        </mxCell>
        <mxCell id="G4qgXDZa_Toy5dqRiD-m-92" value="addition" style="text;html=1;align=left;verticalAlign=middle;resizable=0;points=[];autosize=1;strokeColor=none;fillColor=none;" vertex="1" parent="G4qgXDZa_Toy5dqRiD-m-72">
          <mxGeometry x="10" y="90" width="70" height="30" as="geometry" />
        </mxCell>
        <mxCell id="G4qgXDZa_Toy5dqRiD-m-98" value="commande" style="text;html=1;align=left;verticalAlign=middle;resizable=0;points=[];autosize=1;strokeColor=none;fillColor=none;" vertex="1" parent="G4qgXDZa_Toy5dqRiD-m-72">
          <mxGeometry x="10" y="120" width="80" height="30" as="geometry" />
        </mxCell>
        <mxCell id="G4qgXDZa_Toy5dqRiD-m-111" style="edgeStyle=orthogonalEdgeStyle;rounded=0;orthogonalLoop=1;jettySize=auto;html=1;endArrow=none;startFill=0;" edge="1" parent="1" source="G4qgXDZa_Toy5dqRiD-m-99" target="G4qgXDZa_Toy5dqRiD-m-106">
          <mxGeometry relative="1" as="geometry" />
        </mxCell>
        <mxCell id="G4qgXDZa_Toy5dqRiD-m-112" value="1,1" style="edgeLabel;html=1;align=center;verticalAlign=middle;resizable=0;points=[];" vertex="1" connectable="0" parent="G4qgXDZa_Toy5dqRiD-m-111">
          <mxGeometry x="-0.0391" y="-1" relative="1" as="geometry">
            <mxPoint as="offset" />
          </mxGeometry>
        </mxCell>
        <mxCell id="G4qgXDZa_Toy5dqRiD-m-99" value="to order" style="swimlane;whiteSpace=wrap;html=1;rounded=1;" vertex="1" parent="1">
          <mxGeometry x="80" y="-200" width="200" height="80" as="geometry" />
        </mxCell>
        <mxCell id="G4qgXDZa_Toy5dqRiD-m-106" value="Dish" style="swimlane;whiteSpace=wrap;html=1;" vertex="1" parent="1">
          <mxGeometry x="80" y="-40" width="200" height="120" as="geometry" />
        </mxCell>
        <mxCell id="G4qgXDZa_Toy5dqRiD-m-107" value="dish name" style="text;html=1;align=left;verticalAlign=middle;resizable=0;points=[];autosize=1;strokeColor=none;fillColor=none;" vertex="1" parent="G4qgXDZa_Toy5dqRiD-m-106">
          <mxGeometry x="10" y="60" width="80" height="30" as="geometry" />
        </mxCell>
        <mxCell id="G4qgXDZa_Toy5dqRiD-m-108" value="id" style="text;html=1;align=left;verticalAlign=middle;resizable=0;points=[];autosize=1;strokeColor=none;fillColor=none;" vertex="1" parent="G4qgXDZa_Toy5dqRiD-m-106">
          <mxGeometry x="10" y="30" width="30" height="30" as="geometry" />
        </mxCell>
        <mxCell id="G4qgXDZa_Toy5dqRiD-m-109" value="price" style="text;html=1;align=left;verticalAlign=middle;resizable=0;points=[];autosize=1;strokeColor=none;fillColor=none;" vertex="1" parent="G4qgXDZa_Toy5dqRiD-m-106">
          <mxGeometry x="10" y="90" width="50" height="30" as="geometry" />
        </mxCell>
        <mxCell id="G4qgXDZa_Toy5dqRiD-m-119" style="edgeStyle=orthogonalEdgeStyle;rounded=0;orthogonalLoop=1;jettySize=auto;html=1;endArrow=none;startFill=0;" edge="1" parent="1" source="G4qgXDZa_Toy5dqRiD-m-113" target="G4qgXDZa_Toy5dqRiD-m-118">
          <mxGeometry relative="1" as="geometry" />
        </mxCell>
        <mxCell id="G4qgXDZa_Toy5dqRiD-m-120" value="1,n" style="edgeLabel;html=1;align=center;verticalAlign=middle;resizable=0;points=[];" vertex="1" connectable="0" parent="G4qgXDZa_Toy5dqRiD-m-119">
          <mxGeometry x="0.3079" y="-2" relative="1" as="geometry">
            <mxPoint as="offset" />
          </mxGeometry>
        </mxCell>
        <mxCell id="G4qgXDZa_Toy5dqRiD-m-113" value="server" style="swimlane;whiteSpace=wrap;html=1;" vertex="1" parent="1">
          <mxGeometry x="640" y="-40" width="200" height="90" as="geometry" />
        </mxCell>
        <mxCell id="G4qgXDZa_Toy5dqRiD-m-115" value="id" style="text;html=1;align=left;verticalAlign=middle;resizable=0;points=[];autosize=1;strokeColor=none;fillColor=none;" vertex="1" parent="G4qgXDZa_Toy5dqRiD-m-113">
          <mxGeometry x="10" y="30" width="30" height="30" as="geometry" />
        </mxCell>
        <mxCell id="G4qgXDZa_Toy5dqRiD-m-117" value="dish" style="text;html=1;align=left;verticalAlign=middle;resizable=0;points=[];autosize=1;strokeColor=none;fillColor=none;" vertex="1" parent="G4qgXDZa_Toy5dqRiD-m-113">
          <mxGeometry x="10" y="60" width="50" height="30" as="geometry" />
        </mxCell>
        <mxCell id="G4qgXDZa_Toy5dqRiD-m-121" style="edgeStyle=orthogonalEdgeStyle;rounded=0;orthogonalLoop=1;jettySize=auto;html=1;endArrow=none;startFill=0;" edge="1" parent="1" source="G4qgXDZa_Toy5dqRiD-m-118">
          <mxGeometry relative="1" as="geometry">
            <mxPoint x="280" y="30" as="targetPoint" />
          </mxGeometry>
        </mxCell>
        <mxCell id="G4qgXDZa_Toy5dqRiD-m-122" value="1,1" style="edgeLabel;html=1;align=center;verticalAlign=middle;resizable=0;points=[];" vertex="1" connectable="0" parent="G4qgXDZa_Toy5dqRiD-m-121">
          <mxGeometry x="0.1832" y="1" relative="1" as="geometry">
            <mxPoint as="offset" />
          </mxGeometry>
        </mxCell>
        <mxCell id="G4qgXDZa_Toy5dqRiD-m-118" value="to brind" style="swimlane;whiteSpace=wrap;html=1;rounded=1;" vertex="1" parent="1">
          <mxGeometry x="360" y="-10" width="200" height="80" as="geometry" />
        </mxCell>
      </root>
    </mxGraphModel>
  </diagram>
</mxfile>
